<?xml version="1.0" encoding="UTF-8" standalone="no"?>
<svg
   xmlns:dc="http://purl.org/dc/elements/1.1/"
   xmlns:cc="http://creativecommons.org/ns#"
   xmlns:rdf="http://www.w3.org/1999/02/22-rdf-syntax-ns#"
   xmlns:svg="http://www.w3.org/2000/svg"
   xmlns="http://www.w3.org/2000/svg"
   xmlns:sodipodi="http://sodipodi.sourceforge.net/DTD/sodipodi-0.dtd"
   xmlns:inkscape="http://www.inkscape.org/namespaces/inkscape"
   viewBox="0 0 841.88977 595.27557"
   id="svg42"
   height="595.27557"
   width="841.88977"
   version="1.1"
   sodipodi:docname="sgp-logo.svg"
   inkscape:version="1.0.1 (c497b03c, 2020-09-10)">
  <sodipodi:namedview
     pagecolor="#ffffff"
     bordercolor="#666666"
     borderopacity="1"
     objecttolerance="10"
     gridtolerance="10"
     guidetolerance="10"
     inkscape:pageopacity="0"
     inkscape:pageshadow="2"
     inkscape:window-width="1536"
     inkscape:window-height="938"
     id="namedview4627"
     showgrid="false"
     inkscape:zoom="0.9306614"
     inkscape:cx="365.64036"
     inkscape:cy="240.5561"
     inkscape:window-x="0"
     inkscape:window-y="0"
     inkscape:window-maximized="1"
     inkscape:current-layer="svg42"
     inkscape:document-rotation="0" />
  <metadata
     id="metadata48">
    <rdf:RDF>
      <cc:Work
         rdf:about="">
        <dc:format>image/svg+xml</dc:format>
        <dc:type
           rdf:resource="http://purl.org/dc/dcmitype/StillImage" />
      </cc:Work>
    </rdf:RDF>
  </metadata>
  <defs
     id="defs46" />
  <g
     id="g4637"
     transform="matrix(4.3508166,0,0,4.3508166,-1409.7348,-999.07897)"
     style="fill:#f2f2f2">
    <g
       id="Layer1000"
       style="fill:#f2f2f2">
      <g
         id="Layer1001"
         style="fill:#f2f2f2">
        <path
           d="m 452.7184,316.46 c -7.7173,7.219 -16.7452,10.819 -27.0472,10.819 -10.4681,0 -19.3851,-3.6925 -26.7701,-11.0959 -7.4034,-7.3848 -11.0959,-16.302 -11.0959,-26.77 0,-10.4496 3.6925,-19.3854 11.0959,-26.7703 7.385,-7.3849 16.302,-11.0958 26.7701,-11.0958 10.4497,0 19.3853,3.7109 26.7703,11.0958 l -11.4651,11.4651 c -4.2278,-4.2095 -9.3234,-6.3326 -15.3052,-6.3326 -5.9816,0 -11.0956,2.1231 -15.305,6.3326 -4.228,4.2278 -6.3327,9.3233 -6.3327,15.3052 0,5.9816 2.1047,11.0957 6.3327,15.3051 4.2094,4.2279 9.3234,6.3326 15.305,6.3326 4.0063,0 7.6065,-0.9417 10.8189,-2.8063 v -6.6512 h 16.2283 z"
           style="fill:#f2f2f2;fill-rule:evenodd"
           id="path6"
           inkscape:connector-curvature="0" />
        <path
           d="m 473.0035,301.5933 v 22.7599 c -0.0149,1.6093 -1.3165,2.9109 -2.9258,2.9258 h -13.3024 v -25.6857 z"
           style="fill:#f2f2f2;fill-rule:evenodd"
           id="path8"
           inkscape:connector-curvature="0" />
        <path
           d="m 442.2276,281.3082 h 52.4137 c 6.0517,0 9.0186,-7.2909 4.7817,-11.5575 -1.3107,-1.3107 -2.917,-1.9754 -4.7817,-1.9754 h -21.6378 v 9.4759 H 456.7753 V 251.547 h 37.866 c 6.351,0 11.7605,2.2524 16.2468,6.7388 4.4861,4.4862 6.7387,9.9142 6.7387,16.2652 0,6.3324 -2.2526,11.7604 -6.7387,16.2466 -4.4863,4.4864 -9.8958,6.7388 -16.2468,6.7388 h -36.1855 z"
           style="fill:#f2f2f2;fill-rule:evenodd"
           id="path10"
           inkscape:connector-curvature="0" />
        <path
           d="m 420.2619,297.5364 v -16.2282 h 16.2282 l 16.2283,16.2282 z"
           style="fill:#f2f2f2;fill-rule:evenodd"
           id="path12"
           inkscape:connector-curvature="0" />
        <path
           d="m 360.7629,327.279 h -32.1983 c -1.6313,0 -2.9537,-1.3225 -2.9537,-2.9539 v -13.2743 h 35.152 c 6.0834,0 9.0342,-7.3052 4.8001,-11.5389 -1.3293,-1.3294 -2.9171,-1.9755 -4.8001,-1.9755 h -13.5144 c -6.3509,0 -11.7604,-2.2524 -16.2468,-6.7388 -4.5047,-4.4862 -6.7386,-9.9142 -6.7386,-16.2466 0,-6.351 2.2387,-11.7744 6.7386,-16.2652 4.4909,-4.4817 9.8959,-6.7388 16.2468,-6.7388 h 60.1866 c -7.1056,3.4631 -13.5829,9.4199 -17.7663,16.2283 h -42.4203 c -6.1035,0 -8.9999,7.3688 -4.7817,11.5574 1.3109,1.3107 2.8987,1.9755 4.7817,1.9755 h 13.5144 c 6.3509,0 11.7788,2.2339 16.2652,6.7202 4.4863,4.5047 6.7202,9.9142 6.7202,16.2652 0,6.3509 -2.2339,11.7604 -6.7202,16.2466 -4.4864,4.4865 -9.9143,6.7388 -16.2652,6.7388 z"
           style="fill:#f2f2f2;fill-rule:evenodd"
           id="path14"
           inkscape:connector-curvature="0" />
      </g>
      <path
         d="m 327.0695,335.6284 c -0.9416,0 -1.458,0.5063 -1.458,1.4581 v 2.3896 c 0,0.1923 0.0911,0.3138 0.2734,0.3746 l 2.3997,0.7897 v 1.3467 c 0,0.2733 -0.1418,0.405 -0.4051,0.405 h -0.486 c -0.2531,0 -0.405,-0.1317 -0.405,-0.405 v -0.7796 c 0,-0.1114 -0.0506,-0.1621 -0.162,-0.1621 h -1.053 c -0.1012,0 -0.162,0.0507 -0.162,0.1621 v 1.0632 c 0,0.9516 0.5164,1.4579 1.458,1.4579 h 1.134 c 0.9518,0 1.4581,-0.5063 1.4581,-1.4579 v -2.339 c 0,-0.1924 -0.0912,-0.3038 -0.2633,-0.3747 l -2.4098,-0.7897 V 337.37 c 0,-0.2633 0.1519,-0.405 0.405,-0.405 h 0.486 c 0.2734,0 0.4051,0.1417 0.4051,0.405 v 0.7898 c 0,0.1012 0.0607,0.1619 0.1619,0.1619 h 1.0531 c 0.1113,0 0.162,-0.0607 0.162,-0.1619 v -1.0733 c 0,-0.9518 -0.5063,-1.4581 -1.4581,-1.4581 z m 3.7667,0 c -0.1114,0 -0.1621,0.0608 -0.1621,0.1621 v 7.7761 c 0,0.1013 0.0507,0.162 0.1621,0.162 h 1.0529 c 0.1013,0 0.1621,-0.0607 0.1621,-0.162 v -7.7761 c 0,-0.1013 -0.0608,-0.1621 -0.1621,-0.1621 z m 3.6855,0 c -0.9416,0 -1.458,0.5063 -1.458,1.4581 v 2.3896 c 0,0.1923 0.0911,0.3138 0.2734,0.3746 l 2.3997,0.7897 v 1.3467 c 0,0.2733 -0.1418,0.405 -0.4052,0.405 h -0.4859 c -0.2531,0 -0.405,-0.1317 -0.405,-0.405 v -0.7796 c 0,-0.1114 -0.0506,-0.1621 -0.162,-0.1621 h -1.053 c -0.1013,0 -0.162,0.0507 -0.162,0.1621 v 1.0632 c 0,0.9516 0.5164,1.4579 1.458,1.4579 h 1.134 c 0.9518,0 1.4581,-0.5063 1.4581,-1.4579 v -2.339 c 0,-0.1924 -0.0912,-0.3038 -0.2633,-0.3747 l -2.4098,-0.7897 V 337.37 c 0,-0.2633 0.1519,-0.405 0.405,-0.405 h 0.4859 c 0.2735,0 0.4052,0.1417 0.4052,0.405 v 0.7898 c 0,0.1012 0.0607,0.1619 0.1619,0.1619 h 1.0531 c 0.1113,0 0.162,-0.0607 0.162,-0.1619 v -1.0733 c 0,-0.9518 -0.5063,-1.4581 -1.4581,-1.4581 z m 3.3615,0 c -0.1012,0 -0.162,0.0608 -0.162,0.1621 v 1.0125 c 0,0.1013 0.0608,0.162 0.162,0.162 h 1.1746 v 6.6016 c 0,0.1114 0.0608,0.162 0.162,0.162 h 1.053 c 0.1114,0 0.162,-0.0506 0.162,-0.162 v -6.6016 h 1.1745 c 0.1113,0 0.162,-0.0607 0.162,-0.162 v -1.0125 c 0,-0.1013 -0.0507,-0.1621 -0.162,-0.1621 z m 8.6368,0.1621 c 0,-0.1013 -0.0404,-0.1621 -0.1619,-0.1621 h -3.7261 c -0.0911,0 -0.1519,0.0608 -0.1519,0.1621 v 7.7761 c 0,0.1013 0.0608,0.162 0.1519,0.162 h 3.7261 c 0.1215,0 0.1619,-0.0607 0.1619,-0.162 v -1.0126 c 0,-0.1112 -0.0404,-0.1619 -0.1619,-0.1619 h -2.5314 v -2.0453 h 1.9339 c 0.1013,0 0.162,-0.0607 0.162,-0.1721 v -1.0024 c 0,-0.1114 -0.0607,-0.1722 -0.162,-0.1722 h -1.9339 v -2.0249 h 2.5314 c 0.1215,0 0.1619,-0.0709 0.1619,-0.1722 z m 5.1437,-0.1621 c -0.1215,0 -0.1925,0.0608 -0.2228,0.1824 l -1.1239,5.0423 -1.1238,-5.0423 c -0.0305,-0.1216 -0.1013,-0.1824 -0.2228,-0.1824 h -1.3366 c -0.1316,0 -0.2024,0.071 -0.2024,0.2026 v 7.695 c 0,0.1318 0.0708,0.2026 0.2024,0.2026 h 0.9316 c 0.1316,0 0.2024,-0.0708 0.2024,-0.2026 v -4.5562 h 0.0709 l 1.0024,4.5766 c 0.0305,0.1215 0.1013,0.1822 0.2228,0.1822 h 0.4962 c 0.1215,0 0.1923,-0.0607 0.2226,-0.1822 l 1.0025,-4.5766 h 0.0708 v 4.5562 c 0,0.1318 0.0709,0.2026 0.2026,0.2026 h 0.9416 c 0.1317,0 0.2025,-0.0708 0.2025,-0.2026 v -7.695 c 0,-0.1316 -0.0708,-0.2026 -0.2025,-0.2026 z m 7.2259,8.1002 c 0.1215,0 0.162,-0.0607 0.1418,-0.1721 l -1.6808,-7.7862 c -0.0202,-0.1013 -0.081,-0.1419 -0.1721,-0.1419 h -1.4057 c -0.0912,0 -0.1519,0.0406 -0.1721,0.1419 l -1.6809,7.7862 c -0.0303,0.1114 0.0204,0.1721 0.1318,0.1721 h 1.0832 c 0.0912,0 0.1418,-0.0506 0.162,-0.1417 l 0.2735,-1.4783 h 1.8006 l 0.2835,1.4783 c 0.0202,0.0911 0.0709,0.1417 0.1619,0.1417 z m -1.7719,-2.7945 h -1.2942 l 0.6462,-3.5337 z m 5.3596,2.6325 c 0,0.1114 0.0507,0.162 0.162,0.162 h 2.43 c 0.9518,0 1.4581,-0.5063 1.4581,-1.4579 v -5.1741 c 0,-0.9518 -0.5063,-1.4682 -1.4581,-1.4682 h -2.43 c -0.1113,0 -0.162,0.0608 -0.162,0.1621 z m 1.377,-1.1745 v -5.4271 h 0.9315 c 0.2633,0 0.405,0.1417 0.405,0.4151 v 4.607 c 0,0.2733 -0.1417,0.405 -0.405,0.405 z m 7.7255,-6.6016 c 0,-0.1013 -0.0404,-0.1621 -0.1619,-0.1621 h -3.726 c -0.0912,0 -0.152,0.0608 -0.152,0.1621 v 7.7761 c 0,0.1013 0.0608,0.162 0.152,0.162 h 3.726 c 0.1215,0 0.1619,-0.0607 0.1619,-0.162 v -1.0126 c 0,-0.1112 -0.0404,-0.1619 -0.1619,-0.1619 h -2.5314 v -2.0453 h 1.9339 c 0.1013,0 0.1621,-0.0607 0.1621,-0.1721 v -1.0024 c 0,-0.1114 -0.0608,-0.1722 -0.1621,-0.1722 h -1.9339 v -2.0249 h 2.5314 c 0.1215,0 0.1619,-0.0709 0.1619,-0.1722 z m 3.5438,6.4802 c 0,0.9516 0.5063,1.4579 1.458,1.4579 h 1.3366 c 0.9415,0 1.4579,-0.5063 1.4579,-1.4579 v -2.8149 c 0,-0.1114 -0.0607,-0.1621 -0.162,-0.1621 h -1.7009 c -0.1114,0 -0.1621,0.0507 -0.1621,0.1621 v 1.0125 c 0,0.1013 0.0507,0.162 0.1621,0.162 h 0.5264 v 1.3568 c 0,0.2733 -0.1418,0.405 -0.405,0.405 h -0.729 c -0.2633,0 -0.405,-0.1317 -0.405,-0.405 V 337.37 c 0,-0.2633 0.1316,-0.405 0.405,-0.405 h 0.729 c 0.2632,0 0.405,0.1417 0.405,0.405 v 0.7695 c 0,0.1013 0.0507,0.162 0.1621,0.162 h 1.0124 c 0.1013,0 0.162,-0.0607 0.162,-0.162 v -1.053 c 0,-0.9518 -0.5164,-1.4581 -1.4579,-1.4581 h -1.3366 c -0.9517,0 -1.458,0.5063 -1.458,1.4581 z m 9.3049,-6.4802 c 0,-0.1013 -0.0404,-0.1621 -0.1619,-0.1621 h -3.726 c -0.0912,0 -0.1519,0.0608 -0.1519,0.1621 v 7.7761 c 0,0.1013 0.0607,0.162 0.1519,0.162 h 3.726 c 0.1215,0 0.1619,-0.0607 0.1619,-0.162 v -1.0126 c 0,-0.1112 -0.0404,-0.1619 -0.1619,-0.1619 h -2.5314 v -2.0453 h 1.934 c 0.1012,0 0.162,-0.0607 0.162,-0.1721 v -1.0024 c 0,-0.1114 -0.0608,-0.1722 -0.162,-0.1722 h -1.934 v -2.0249 h 2.5314 c 0.1215,0 0.1619,-0.0709 0.1619,-0.1722 z m 5.0729,1.296 c 0,-0.9518 -0.5063,-1.4581 -1.4581,-1.4581 h -2.5414 c -0.1012,0 -0.162,0.0608 -0.162,0.1621 v 7.7761 c 0,0.1013 0.0608,0.162 0.162,0.162 h 1.053 c 0.1013,0 0.162,-0.0607 0.162,-0.162 v -2.5515 h 0.6986 l 0.6784,2.5718 c 0.0202,0.0911 0.0709,0.1417 0.1722,0.1417 h 1.0529 c 0.1114,0 0.1721,-0.0607 0.1418,-0.1822 l -0.6986,-2.6529 c 0.486,-0.2125 0.7392,-0.6581 0.7392,-1.3365 z m -2.7845,2.592 v -2.7135 h 1.0023 c 0.2633,0 0.4052,0.1417 0.4052,0.405 v 1.9035 c 0,0.2633 -0.1419,0.405 -0.4052,0.405 z m 7.8367,-3.888 c 0,-0.1013 -0.0404,-0.1621 -0.1619,-0.1621 h -3.726 c -0.0912,0 -0.1519,0.0608 -0.1519,0.1621 v 7.7761 c 0,0.1013 0.0607,0.162 0.1519,0.162 h 3.726 c 0.1215,0 0.1619,-0.0607 0.1619,-0.162 v -1.0126 c 0,-0.1112 -0.0404,-0.1619 -0.1619,-0.1619 h -2.5313 v -2.0453 h 1.9339 c 0.1013,0 0.162,-0.0607 0.162,-0.1721 v -1.0024 c 0,-0.1114 -0.0607,-0.1722 -0.162,-0.1722 h -1.9339 v -2.0249 h 2.5313 c 0.1215,0 0.1619,-0.0709 0.1619,-0.1722 z m 4.121,-0.1621 c -0.1114,0 -0.1621,0.0608 -0.1621,0.1621 v 4.2728 h -0.0607 l -1.539,-4.3031 c -0.0303,-0.0912 -0.0911,-0.1318 -0.1823,-0.1318 h -1.0023 c -0.1013,0 -0.162,0.0608 -0.162,0.1621 v 7.7761 c 0,0.1013 0.0607,0.162 0.162,0.162 h 1.053 c 0.1114,0 0.162,-0.0607 0.162,-0.162 v -4.2931 h 0.0506 l 1.5492,4.3235 c 0.0303,0.0911 0.091,0.1316 0.1822,0.1316 h 1.0025 c 0.1011,0 0.1618,-0.0607 0.1618,-0.162 v -7.7761 c 0,-0.1013 -0.0607,-0.1621 -0.1618,-0.1621 z m 6.2877,1.4581 c 0,-0.9518 -0.5164,-1.4581 -1.4581,-1.4581 h -1.1339 c -0.9518,0 -1.4682,0.5063 -1.4682,1.4581 v 5.1842 c 0,0.9516 0.5164,1.4579 1.4682,1.4579 h 1.1339 c 0.9417,0 1.4581,-0.5063 1.4581,-1.4579 v -1.0937 c 0,-0.1011 -0.0608,-0.1619 -0.162,-0.1619 h -1.0126 c -0.1114,0 -0.162,0.0608 -0.162,0.1619 v 0.8101 c 0,0.2733 -0.1417,0.405 -0.405,0.405 h -0.5265 c -0.2632,0 -0.405,-0.1317 -0.405,-0.405 V 337.37 c 0,-0.2633 0.1316,-0.405 0.405,-0.405 h 0.5265 c 0.2633,0 0.405,0.1417 0.405,0.405 v 0.81 c 0,0.1013 0.0506,0.1621 0.162,0.1621 h 1.0126 c 0.1012,0 0.162,-0.0608 0.162,-0.1621 z m 1.1746,-1.4581 c -0.1114,0 -0.1621,0.0608 -0.1621,0.1621 v 7.7761 c 0,0.1013 0.0507,0.162 0.1621,0.162 h 1.0529 c 0.1013,0 0.162,-0.0607 0.162,-0.162 v -7.7761 c 0,-0.1013 -0.0607,-0.1621 -0.162,-0.1621 z m 7.1044,8.1002 c 0.1215,0 0.162,-0.0607 0.1418,-0.1721 l -1.6808,-7.7862 c -0.0202,-0.1013 -0.081,-0.1419 -0.1722,-0.1419 h -1.4056 c -0.0912,0 -0.1519,0.0406 -0.1721,0.1419 l -1.6809,7.7862 c -0.0303,0.1114 0.0204,0.1721 0.1317,0.1721 h 1.0833 c 0.0912,0 0.1418,-0.0506 0.162,-0.1417 l 0.2734,-1.4783 h 1.8007 l 0.2835,1.4783 c 0.0202,0.0911 0.0709,0.1417 0.1619,0.1417 z m -1.7719,-2.7945 h -1.2942 l 0.6462,-3.5337 z m 6.8581,-5.3057 c -0.1215,0 -0.1925,0.0608 -0.2228,0.1824 l -1.1239,5.0423 -1.1238,-5.0423 c -0.0304,-0.1216 -0.1013,-0.1824 -0.2228,-0.1824 h -1.3366 c -0.1316,0 -0.2024,0.071 -0.2024,0.2026 v 7.695 c 0,0.1318 0.0708,0.2026 0.2024,0.2026 h 0.9316 c 0.1316,0 0.2025,-0.0708 0.2025,-0.2026 v -4.5562 h 0.0708 l 1.0025,4.5766 c 0.0304,0.1215 0.1012,0.1822 0.2227,0.1822 h 0.4962 c 0.1215,0 0.1923,-0.0607 0.2226,-0.1822 l 1.0025,-4.5766 h 0.0708 v 4.5562 c 0,0.1318 0.0709,0.2026 0.2026,0.2026 h 0.9416 c 0.1317,0 0.2025,-0.0708 0.2025,-0.2026 v -7.695 c 0,-0.1316 -0.0708,-0.2026 -0.2025,-0.2026 z m 6.5914,0.1621 c 0,-0.1013 -0.0404,-0.1621 -0.1619,-0.1621 h -3.726 c -0.0912,0 -0.1519,0.0608 -0.1519,0.1621 v 7.7761 c 0,0.1013 0.0607,0.162 0.1519,0.162 h 3.726 c 0.1215,0 0.1619,-0.0607 0.1619,-0.162 v -1.0126 c 0,-0.1112 -0.0404,-0.1619 -0.1619,-0.1619 h -2.5313 v -2.0453 h 1.9339 c 0.1013,0 0.162,-0.0607 0.162,-0.1721 v -1.0024 c 0,-0.1114 -0.0607,-0.1722 -0.162,-0.1722 h -1.9339 v -2.0249 h 2.5313 c 0.1215,0 0.1619,-0.0709 0.1619,-0.1722 z m 4.121,-0.1621 c -0.1114,0 -0.1621,0.0608 -0.1621,0.1621 v 4.2728 h -0.0607 l -1.539,-4.3031 c -0.0303,-0.0912 -0.0911,-0.1318 -0.1823,-0.1318 h -1.0023 c -0.1013,0 -0.162,0.0608 -0.162,0.1621 v 7.7761 c 0,0.1013 0.0607,0.162 0.162,0.162 h 1.053 c 0.1114,0 0.162,-0.0607 0.162,-0.162 v -4.2931 h 0.0506 l 1.5492,4.3235 c 0.0303,0.0911 0.091,0.1316 0.1822,0.1316 h 1.0024 c 0.1012,0 0.1619,-0.0607 0.1619,-0.162 v -7.7761 c 0,-0.1013 -0.0607,-0.1621 -0.1619,-0.1621 z m 2.187,0 c -0.1013,0 -0.1621,0.0608 -0.1621,0.1621 v 1.0125 c 0,0.1013 0.0608,0.162 0.1621,0.162 h 1.1745 v 6.6016 c 0,0.1114 0.0608,0.162 0.1621,0.162 h 1.0529 c 0.1114,0 0.162,-0.0506 0.162,-0.162 v -6.6016 h 1.1745 c 0.1114,0 0.162,-0.0607 0.162,-0.162 v -1.0125 c 0,-0.1013 -0.0506,-0.1621 -0.162,-0.1621 z m 4.4956,6.6423 c 0,0.9516 0.5062,1.4579 1.4579,1.4579 h 1.1341 c 0.9518,0 1.458,-0.5063 1.458,-1.4579 v -5.1842 c 0,-0.9518 -0.5062,-1.4581 -1.458,-1.4581 h -1.1341 c -0.9517,0 -1.4579,0.5063 -1.4579,1.4581 z m 1.7515,0.1517 c -0.2631,0 -0.405,-0.1315 -0.405,-0.405 v -4.6778 c 0,-0.2632 0.1419,-0.405 0.405,-0.405 h 0.5874 c 0.2632,0 0.405,0.1418 0.405,0.405 v 4.6778 c 0,0.2735 -0.1418,0.405 -0.405,0.405 z m 5.8423,1.1442 c 0,0.1013 0.0608,0.162 0.1621,0.162 h 1.0529 c 0.1114,0 0.1621,-0.0607 0.1621,-0.162 v -2.5515 h 1.2149 c 0.9519,0 1.4581,-0.5163 1.4581,-1.4581 v -2.4705 c 0,-0.9518 -0.5062,-1.4581 -1.4581,-1.4581 h -2.4299 c -0.1013,0 -0.1621,0.0608 -0.1621,0.1621 z m 1.3771,-3.8881 v -2.7135 h 0.8909 c 0.2734,0 0.4051,0.1417 0.4051,0.405 v 1.9035 c 0,0.2532 -0.1317,0.405 -0.4051,0.405 z m 8.0562,4.0501 c 0.1215,0 0.162,-0.0607 0.1418,-0.1721 l -1.6808,-7.7862 c -0.0202,-0.1013 -0.081,-0.1419 -0.1721,-0.1419 h -1.4057 c -0.0912,0 -0.1519,0.0406 -0.1721,0.1419 l -1.6809,7.7862 c -0.0303,0.1114 0.0204,0.1721 0.1318,0.1721 h 1.0832 c 0.0912,0 0.1418,-0.0506 0.1621,-0.1417 l 0.2734,-1.4783 h 1.8006 l 0.2835,1.4783 c 0.0202,0.0911 0.0709,0.1417 0.1619,0.1417 z m -1.7719,-2.7945 h -1.2942 l 0.6462,-3.5337 z m 6.9898,-3.8476 c 0,-0.9518 -0.5062,-1.4581 -1.4581,-1.4581 h -2.5413 c -0.1013,0 -0.162,0.0608 -0.162,0.1621 v 7.7761 c 0,0.1013 0.0607,0.162 0.162,0.162 h 1.053 c 0.1012,0 0.162,-0.0607 0.162,-0.162 v -2.5515 h 0.6986 l 0.6784,2.5718 c 0.0202,0.0911 0.0708,0.1417 0.1721,0.1417 h 1.053 c 0.1114,0 0.1721,-0.0607 0.1418,-0.1822 l -0.6986,-2.6529 c 0.4859,-0.2125 0.7391,-0.6581 0.7391,-1.3365 z m -2.7844,2.592 v -2.7135 h 1.0023 c 0.2633,0 0.4051,0.1417 0.4051,0.405 v 1.9035 c 0,0.2633 -0.1418,0.405 -0.4051,0.405 z m 8.37,4.0501 c 0.1215,0 0.1621,-0.0607 0.1419,-0.1721 l -1.6809,-7.7862 c -0.0202,-0.1013 -0.0809,-0.1419 -0.1721,-0.1419 h -1.4056 c -0.0912,0 -0.152,0.0406 -0.1722,0.1419 l -1.6808,7.7862 c -0.0303,0.1114 0.0203,0.1721 0.1317,0.1721 h 1.0833 c 0.0911,0 0.1418,-0.0506 0.162,-0.1417 l 0.2734,-1.4783 h 1.8006 l 0.2836,1.4783 c 0.0202,0.0911 0.0708,0.1417 0.1618,0.1417 z m -1.7719,-2.7945 h -1.2942 l 0.6463,-3.5337 z m 5.3597,2.6325 c 0,0.1013 0.0607,0.162 0.162,0.162 h 1.0529 c 0.1114,0 0.1621,-0.0607 0.1621,-0.162 v -2.5515 h 1.2149 c 0.9519,0 1.4581,-0.5163 1.4581,-1.4581 v -2.4705 c 0,-0.9518 -0.5062,-1.4581 -1.4581,-1.4581 h -2.4299 c -0.1013,0 -0.162,0.0608 -0.162,0.1621 z m 1.377,-3.8881 v -2.7135 h 0.8909 c 0.2734,0 0.4051,0.1417 0.4051,0.405 v 1.9035 c 0,0.2532 -0.1317,0.405 -0.4051,0.405 z m 7.7458,-2.592 c 0,-0.9518 -0.5063,-1.4581 -1.4581,-1.4581 h -2.5414 c -0.1013,0 -0.162,0.0608 -0.162,0.1621 v 7.7761 c 0,0.1013 0.0607,0.162 0.162,0.162 h 1.053 c 0.1013,0 0.162,-0.0607 0.162,-0.162 v -2.5515 h 0.6986 l 0.6784,2.5718 c 0.0202,0.0911 0.0709,0.1417 0.1721,0.1417 h 1.053 c 0.1114,0 0.1721,-0.0607 0.1418,-0.1822 l -0.6986,-2.6529 c 0.486,-0.2125 0.7392,-0.6581 0.7392,-1.3365 z m -2.7845,2.592 v -2.7135 h 1.0023 c 0.2633,0 0.4052,0.1417 0.4052,0.405 v 1.9035 c 0,0.2633 -0.1419,0.405 -0.4052,0.405 z m 3.5945,2.5922 c 0,0.9516 0.5062,1.4579 1.4579,1.4579 h 1.134 c 0.9519,0 1.4581,-0.5063 1.4581,-1.4579 v -5.1842 c 0,-0.9518 -0.5062,-1.4581 -1.4581,-1.4581 h -1.134 c -0.9517,0 -1.4579,0.5063 -1.4579,1.4581 z m 1.7515,0.1517 c -0.2632,0 -0.405,-0.1315 -0.405,-0.405 v -4.6778 c 0,-0.2632 0.1418,-0.405 0.405,-0.405 h 0.5874 c 0.2632,0 0.405,0.1418 0.405,0.405 v 4.6778 c 0,0.2735 -0.1418,0.405 -0.405,0.405 z m 6.4346,-6.794 c -0.1216,0 -0.1924,0.0608 -0.2228,0.1824 l -1.0733,5.427 -1.0631,-5.427 c -0.0304,-0.1216 -0.1012,-0.1824 -0.2228,-0.1824 h -0.9601 c -0.1519,0 -0.2127,0.0811 -0.1824,0.2228 l 1.6994,7.6952 c 0.0304,0.1215 0.1013,0.1822 0.2228,0.1822 h 1.0125 c 0.1215,0 0.1924,-0.0607 0.2228,-0.1822 l 1.7095,-7.6952 c 0.0303,-0.1417 -0.0305,-0.2228 -0.1824,-0.2228 z m 6.0091,0.1621 c 0,-0.1013 -0.0404,-0.1621 -0.1619,-0.1621 h -3.726 c -0.0912,0 -0.1519,0.0608 -0.1519,0.1621 v 7.7761 c 0,0.1013 0.0607,0.162 0.1519,0.162 h 3.726 c 0.1215,0 0.1619,-0.0607 0.1619,-0.162 v -1.0126 c 0,-0.1112 -0.0404,-0.1619 -0.1619,-0.1619 h -2.5313 v -2.0453 h 1.9339 c 0.1013,0 0.162,-0.0607 0.162,-0.1721 v -1.0024 c 0,-0.1114 -0.0607,-0.1722 -0.162,-0.1722 h -1.9339 v -2.0249 h 2.5313 c 0.1215,0 0.1619,-0.0709 0.1619,-0.1722 z m 0.9114,7.7761 c 0,0.1114 0.0507,0.162 0.1621,0.162 h 2.4299 c 0.9518,0 1.4581,-0.5063 1.4581,-1.4579 v -5.1741 c 0,-0.9518 -0.5063,-1.4682 -1.4581,-1.4682 h -2.4299 c -0.1114,0 -0.1621,0.0608 -0.1621,0.1621 z m 1.377,-1.1745 v -5.4271 h 0.9315 c 0.2633,0 0.405,0.1417 0.405,0.4151 v 4.607 c 0,0.2733 -0.1417,0.405 -0.405,0.405 z m 3.6857,-0.1214 c 0,0.9516 0.5062,1.4579 1.4579,1.4579 h 1.1341 c 0.9518,0 1.4581,-0.5063 1.4581,-1.4579 v -5.1842 c 0,-0.9518 -0.5063,-1.4581 -1.4581,-1.4581 h -1.1341 c -0.9517,0 -1.4579,0.5063 -1.4579,1.4581 z m 1.7515,0.1517 c -0.2631,0 -0.405,-0.1315 -0.405,-0.405 v -4.6778 c 0,-0.2632 0.1419,-0.405 0.405,-0.405 h 0.5874 c 0.2632,0 0.405,0.1418 0.405,0.405 v 4.6778 c 0,0.2735 -0.1418,0.405 -0.405,0.405 z m 7.4726,-5.3359 c 0,-0.9518 -0.5063,-1.4581 -1.4581,-1.4581 h -2.5414 c -0.1013,0 -0.162,0.0608 -0.162,0.1621 v 7.7761 c 0,0.1013 0.0607,0.162 0.162,0.162 h 1.053 c 0.1013,0 0.162,-0.0607 0.162,-0.162 v -2.5515 h 0.6986 l 0.6784,2.5718 c 0.0202,0.0911 0.0709,0.1417 0.1721,0.1417 h 1.053 c 0.1114,0 0.1721,-0.0607 0.1418,-0.1822 l -0.6986,-2.6529 c 0.486,-0.2125 0.7392,-0.6581 0.7392,-1.3365 z m -2.7845,2.592 v -2.7135 h 1.0023 c 0.2633,0 0.4052,0.1417 0.4052,0.405 v 1.9035 c 0,0.2633 -0.1419,0.405 -0.4052,0.405 z m 7.8367,-3.888 c 0,-0.1013 -0.0404,-0.1621 -0.1619,-0.1621 h -3.726 c -0.0912,0 -0.1519,0.0608 -0.1519,0.1621 v 7.7761 c 0,0.1013 0.0607,0.162 0.1519,0.162 h 3.726 c 0.1215,0 0.1619,-0.0607 0.1619,-0.162 v -1.0126 c 0,-0.1112 -0.0404,-0.1619 -0.1619,-0.1619 h -2.5313 v -2.0453 h 1.9339 c 0.1013,0 0.162,-0.0607 0.162,-0.1721 v -1.0024 c 0,-0.1114 -0.0607,-0.1722 -0.162,-0.1722 h -1.9339 v -2.0249 h 2.5313 c 0.1215,0 0.1619,-0.0709 0.1619,-0.1722 z m 2.1668,-0.1621 c -0.9415,0 -1.4579,0.5063 -1.4579,1.4581 v 2.3896 c 0,0.1923 0.091,0.3138 0.2734,0.3746 l 2.3996,0.7897 v 1.3467 c 0,0.2733 -0.1418,0.405 -0.4051,0.405 h -0.4859 c -0.2531,0 -0.405,-0.1317 -0.405,-0.405 v -0.7796 c 0,-0.1114 -0.0507,-0.1621 -0.162,-0.1621 h -1.053 c -0.1013,0 -0.162,0.0507 -0.162,0.1621 v 1.0632 c 0,0.9516 0.5164,1.4579 1.4579,1.4579 h 1.1341 c 0.9518,0 1.4581,-0.5063 1.4581,-1.4579 v -2.339 c 0,-0.1924 -0.0912,-0.3038 -0.2634,-0.3747 l -2.4097,-0.7897 V 337.37 c 0,-0.2633 0.1519,-0.405 0.405,-0.405 h 0.4859 c 0.2734,0 0.4051,0.1417 0.4051,0.405 v 0.7898 c 0,0.1012 0.0608,0.1619 0.1619,0.1619 h 1.0531 c 0.1114,0 0.1621,-0.0607 0.1621,-0.1619 v -1.0733 c 0,-0.9518 -0.5063,-1.4581 -1.4581,-1.4581 z"
         style="fill:#f2f2f2;fill-rule:evenodd"
         id="path17"
         inkscape:connector-curvature="0" />
    </g>
  </g>
</svg>
